<svg xmlns="http://www.w3.org/2000/svg" width="150.583" height="150.583" viewBox="0 0 150.583 150.583"><defs><style>.a{fill:#f7941d;}.b,.d{fill:none;}.b{stroke:#f7941d;stroke-width:5px;}.c{stroke:none;}</style></defs><g transform="translate(-565 -3187)"><g transform="translate(598 3212.875)"><g transform="translate(29.337 8.125)"><g transform="translate(0 0)"><path class="a" d="M192.311,11.071a10.925,10.925,0,0,0-7.549-2.946,12.035,12.035,0,0,0-8.483,3.526l-.992.992-.992-1a12.045,12.045,0,0,0-8.483-3.522,10.926,10.926,0,0,0-7.549,2.946,11.275,11.275,0,0,0-.249,16.186L175.287,44.53,192.56,27.258A11.275,11.275,0,0,0,192.311,11.071Z" transform="translate(-154.712 -8.125)"/></g></g><g transform="translate(0 50.601)"><path class="a" d="M83.891,234.85c-2.655-1.8-5.783-1.289-8.553.309s-18.674,15.2-18.674,15.2l-15.656,0a1.713,1.713,0,0,1-1.517-1.544,1.549,1.549,0,0,1,1.517-1.517h9.578c3.353,0,7.106-2.185,7.106-6.068,0-4.126-3.753-6.068-7.106-6.068-5.816,0-6.948.024-6.948.024-2.33,0-4.694-.14-6.514-1.113a17.964,17.964,0,0,0-8.21-1.948,17.531,17.531,0,0,0-12.576,5.152L0,253.363l18.2,18.2,6.068-6.068H55a12.491,12.491,0,0,0,8.3-3.152l20.8-23.338A2.659,2.659,0,0,0,83.891,234.85Z" transform="translate(0 -232.125)"/></g></g><g class="b" transform="translate(565 3187)"><ellipse class="c" cx="75.292" cy="75.292" rx="75.292" ry="75.292"/><ellipse class="d" cx="75.292" cy="75.292" rx="72.792" ry="72.792"/></g></g></svg>