<svg xmlns="http://www.w3.org/2000/svg" width="150.583" height="150.583" viewBox="0 0 150.583 150.583"><defs><style>.a,.d{fill:none;}.a{stroke:#9fc54d;stroke-width:5px;}.b{fill:#9fc54d;}.c{stroke:none;}</style></defs><g transform="translate(-187 -1460)"><g class="a" transform="translate(187 1460)"><ellipse class="c" cx="75.292" cy="75.292" rx="75.292" ry="75.292"/><ellipse class="d" cx="75.292" cy="75.292" rx="72.792" ry="72.792"/></g><g transform="translate(170 1493)"><path class="b" d="M117.129,0H60V77.129h4.968V4.976h52.161Z" transform="translate(0)"/><path class="b" d="M120,60v74.505h36.731V114.637H177.72V60Zm28.86,54.637H130.495V109.67H148.86Zm18.366-9.934H130.495V99.736h36.731Zm0-9.934H130.495V89.8h36.731Zm0-9.934H130.495V79.868h36.731Zm0-9.934H130.495V69.934h36.731Z" transform="translate(-52.72 -49.505)"/><path class="b" d="M360,434.2,374.2,420H360Z" transform="translate(-250.742 -350.742)"/></g></g></svg>