<svg xmlns="http://www.w3.org/2000/svg" width="150.583" height="150.583" viewBox="0 0 150.583 150.583"><defs><style>.a,.d{fill:none;}.a{stroke:#f7941d;stroke-width:5px;}.b{fill:#f7941d;}.c{stroke:none;}</style></defs><g transform="translate(-938 -1460)"><g class="a" transform="translate(938 1460)"><ellipse class="c" cx="75.292" cy="75.292" rx="75.292" ry="75.292"/><ellipse class="d" cx="75.292" cy="75.292" rx="72.792" ry="72.792"/></g><g transform="translate(971 1504)"><g transform="translate(0 29.042)"><path class="b" d="M30.436,237.96A18.923,18.923,0,0,0,0,253V264.69a2.479,2.479,0,0,0,2.479,2.479h20V255.218A22.7,22.7,0,0,1,30.436,237.96Z" transform="translate(0 -234.055)"/></g><g transform="translate(6.021 0)"><path class="b" d="M47.754,91.922A12.927,12.927,0,1,0,34.827,79,12.926,12.926,0,0,0,47.754,91.922Z" transform="translate(-34.827 -66.068)"/></g><g transform="translate(28.141 33.109)"><path class="b" d="M179.872,257.581a17.1,17.1,0,0,0-17.1,17.1v9.473a2.478,2.478,0,0,0,2.479,2.479h19.638V276.467a20.135,20.135,0,0,1,6.274-14.6A17.007,17.007,0,0,0,179.872,257.581Z" transform="translate(-162.776 -257.581)"/></g><g transform="translate(33.574 6.906)"><path class="b" d="M199.549,127.463a11.649,11.649,0,1,0-5.347-9.782A11.584,11.584,0,0,0,199.549,127.463Z" transform="translate(-194.202 -106.017)"/></g><g transform="translate(55.925 37.457)"><path class="b" d="M338.027,282.733a14.537,14.537,0,0,0-14.537,14.538v7.682a2.479,2.479,0,0,0,2.479,2.479h24.116a2.479,2.479,0,0,0,2.479-2.479v-7.682A14.538,14.538,0,0,0,338.027,282.733Z" transform="translate(-323.49 -282.733)"/></g><g transform="translate(60.545 15.174)"><path class="b" d="M353.926,171.439a9.879,9.879,0,1,0-3.716-7.681A9.827,9.827,0,0,0,353.926,171.439Z" transform="translate(-350.21 -153.839)"/></g></g></g></svg>