<svg xmlns="http://www.w3.org/2000/svg" width="85" height="84.667" viewBox="0 0 85 84.667"><defs><style>.a{fill:#9fc54d;}</style></defs><g transform="translate(0 -1.002)"><path class="a" d="M26.987,278.261l1.248-1.4a14.95,14.95,0,0,1,.06-9.088,17.409,17.409,0,0,1-21.682-4.042A17.4,17.4,0,0,0,0,277.386v24.9a2.491,2.491,0,0,0,2.49,2.49H23.006a7.41,7.41,0,0,1-.428-2.49V289.837A17.393,17.393,0,0,1,26.987,278.261Z" transform="translate(0 -219.109)"/><circle class="a" cx="12.451" cy="12.451" r="12.451" transform="translate(7.471 20.923)"/><path class="a" d="M363.242,263.728a17.4,17.4,0,0,1-21.682,4.041,14.957,14.957,0,0,1,.06,9.089l1.248,1.4a17.393,17.393,0,0,1,4.409,11.576v12.451a7.408,7.408,0,0,1-.428,2.49h20.516a2.491,2.491,0,0,0,2.49-2.49v-24.9A17.4,17.4,0,0,0,363.242,263.728Z" transform="translate(-284.856 -219.109)"/><circle class="a" cx="12.451" cy="12.451" r="12.451" transform="translate(52.627 20.923)"/><path class="a" d="M180.941,376.984a14.921,14.921,0,0,1-11.792-5.776A12.4,12.4,0,0,0,166,379.474v12.451a2.491,2.491,0,0,0,2.49,2.49h24.9a2.491,2.491,0,0,0,2.49-2.49V379.474a12.4,12.4,0,0,0-3.149-8.266A14.921,14.921,0,0,1,180.941,376.984Z" transform="translate(-138.441 -308.746)"/><circle class="a" cx="9.961" cy="9.961" r="9.961" transform="translate(32.539 43.335)"/><path class="a" d="M182.2,21.088a41.694,41.694,0,0,0,5.78,4.446,2.491,2.491,0,0,0,2.611,0,41.683,41.683,0,0,0,5.78-4.446c4.111-3.8,6.2-7.493,6.2-10.978,0-7.915-7.871-11.63-13.281-7.233C183.859-1.53,176,2.216,176,10.11c0,3.485,2.084,7.179,6.2,10.978Z" transform="translate(-146.781 0)"/></g></svg>