<svg xmlns="http://www.w3.org/2000/svg" xmlns:xlink="http://www.w3.org/1999/xlink" width="100" height="100" viewBox="0 0 100 100"><defs><style>.a{fill:#fff;stroke:#707070;}.b{clip-path:url(#a);}.c{fill:#57ade9;}</style><clipPath id="a"><rect class="a" width="100" height="100" transform="translate(448 1597)"/></clipPath></defs><g class="b" transform="translate(-448 -1597)"><g transform="translate(448 1597)"><path class="c" d="M33.345,51.046a9.847,9.847,0,0,0,3.731-1.69c3.489-2.524,5.038-6.669,3.455-9.262-1.721-2.821-6.427-2.631-10.044.579a11.3,11.3,0,0,0-4.2,9.386c0,2.317.741,6.455,5.269,10.048a26.064,26.064,0,0,1,7.579-3.993l.038-.014C36.954,55.175,34.056,53.347,33.345,51.046Zm-.558-7.976a1.724,1.724,0,1,1,1.724,1.752A1.734,1.734,0,0,1,32.787,43.071Z"/><path class="c" d="M73.772,50.064a11.334,11.334,0,0,0-4.207-9.39c-3.614-3.207-8.324-3.4-10.045-.579-1.579,2.593-.034,6.738,3.455,9.262a9.856,9.856,0,0,0,3.731,1.69A7.877,7.877,0,0,1,63,55.022c-2.726,1.627-4.2,1.828-21.641,7.62-6.455,2.193-10.3,6.551-10.3,11.658A10.71,10.71,0,0,0,35.5,82.8a21.621,21.621,0,0,1,6.021-4.286c-2.728-1.379-3.569-2.424-3.569-4.214,0-2.954,5.9-4.643,8.628-5.541v7.476l6.9-3.076v-4.4c2.728.9,8.617,2.59,8.617,5.538,0,4.9-14.042,7.8-20.017,11.917-2.9,2.01-4.459,4.566-4.459,7.569,0,1.724.2,3.862,3.228,5.986a1,1,0,0,0,1.493-1.279c-2-4,.124-6,4.248-7.734v5.786a3.448,3.448,0,0,0,6.9,0V90.762c3.962,1.662,6.455,4.01,4.238,7.731a1,1,0,0,0,1.49,1.279c2.931-2.221,3.162-4.124,3.162-5.941,0-2.8-1.531-5.51-4.434-7.589C63.807,84.121,69,80.552,69,74.308c0-4.314-2.741-8.093-7.479-10.486a24.113,24.113,0,0,0,4.806-2.214C72.806,57.736,73.772,52.712,73.772,50.064Zm-8.227-5.241a1.752,1.752,0,1,1,1.724-1.752A1.737,1.737,0,0,1,65.544,44.822Z"/><path class="c" d="M98.274,6.9H74.659c-4.633,0-8.109,2.048-11.1,5.039-3.249,3.249-4.938,10.471-10.112,10.471V12.836a6.9,6.9,0,1,0-6.9,0V53.931c2.128-.679,4.464-1.427,6.9-2.208V34.451a7.666,7.666,0,0,0,3.443-3.466,7.069,7.069,0,0,0,6.021,3.5,6.866,6.866,0,0,0,5.982-3.526c4.04,4.04,11.548,4.118,15.587.078l-5.86-5.86,2.688,1.114a10.345,10.345,0,0,0,13.516-5.6L86.5,17.248C94.566,17.248,98.274,12.187,98.274,6.9Z"/><path class="c" d="M36.44,11.942C33.449,8.951,29.973,6.9,25.34,6.9H1.726c0,5.284,3.708,10.344,11.773,10.344L5.174,20.7a10.345,10.345,0,0,0,13.516,5.6l2.688-1.114-5.86,5.86c4.04,4.04,11.548,3.962,15.587-.078a6.866,6.866,0,0,0,5.982,3.526h.076a6.3,6.3,0,0,0,5.945-6.451V21.1C40.391,18.87,38.834,14.336,36.44,11.942Z"/></g></g></svg>