<svg xmlns="http://www.w3.org/2000/svg" width="355.583" height="265.352" viewBox="0 0 355.583 265.352"><defs><style>.a{fill:#fff;opacity:0.2;}</style></defs><path class="a" d="M83.727,111.857a78.471,78.471,0,0,0-11.522,1.158,63.907,63.907,0,0,1,4.5-12.054C78.728,95.5,81.884,90.775,85.027,86c2.623-5.152,7.244-8.65,10.647-13.058,3.557-4.29,8.414-7.149,12.266-10.706,3.781-3.722,8.721-5.59,12.656-8.213,4.112-2.363,7.693-4.963,11.522-6.2l9.548-3.935,8.4-3.486-8.6-34.353L130.89,8.6c-3.38.851-7.516,1.843-12.207,3.037-4.81.886-9.926,3.309-15.634,5.53-5.637,2.517-12.16,4.219-18.222,8.26-6.1,3.864-13.129,7.09-19.333,12.266-6.015,5.341-13.259,9.962-18.612,16.745-5.85,6.346-11.628,13.011-16.119,20.6-5.2,7.232-8.721,15.173-12.444,23.02a194.985,194.985,0,0,0-8.3,23.682,213.984,213.984,0,0,0-6.807,43.192,220.932,220.932,0,0,0,.5,30.973c.26,3.616.768,7.126,1.123,9.548l.449,2.978.461-.106a79.766,79.766,0,1,0,77.982-96.464Zm194.984,0a78.471,78.471,0,0,0-11.522,1.158,63.9,63.9,0,0,1,4.5-12.054c2.021-5.46,5.176-10.186,8.319-14.961,2.623-5.152,7.244-8.65,10.647-13.058,3.557-4.29,8.414-7.149,12.266-10.706,3.781-3.722,8.721-5.59,12.656-8.213,4.112-2.363,7.693-4.963,11.522-6.2l9.548-3.935,8.4-3.486-8.6-34.353L325.874,8.6c-3.38.851-7.516,1.843-12.207,3.037-4.81.886-9.926,3.309-15.634,5.53-5.625,2.529-12.16,4.219-18.222,8.284-6.1,3.864-13.129,7.09-19.333,12.266-6.015,5.341-13.259,9.962-18.612,16.733-5.85,6.346-11.628,13.011-16.119,20.6-5.2,7.232-8.721,15.173-12.443,23.02a194.984,194.984,0,0,0-8.3,23.682A213.986,213.986,0,0,0,198.2,164.94a220.932,220.932,0,0,0,.5,30.973c.26,3.616.768,7.126,1.123,9.548l.449,2.978.461-.106a79.766,79.766,0,1,0,77.982-96.476Z" transform="translate(-2.911 -6.046)"/></svg>